<svg width="1200" height="1600" viewBox="0 0 1200 1600" fill="none" xmlns="http://www.w3.org/2000/svg">
  <defs>
    <linearGradient id="bg" x1="0" y1="0" x2="1200" y2="1600" gradientUnits="userSpaceOnUse">
      <stop stop-color="#06080B"/>
      <stop offset="1" stop-color="#0B151C"/>
    </linearGradient>
    <radialGradient id="aura" cx="0" cy="0" r="1" gradientUnits="userSpaceOnUse" gradientTransform="translate(810 224) rotate(140) scale(418 312)">
      <stop stop-color="#B6E9F7" stop-opacity="0.88"/>
      <stop offset="1" stop-color="#59BFE0" stop-opacity="0"/>
    </radialGradient>
    <radialGradient id="auraBottom" cx="0" cy="0" r="1" gradientUnits="userSpaceOnUse" gradientTransform="translate(170 1400) rotate(-28) scale(356 248)">
      <stop stop-color="#59BFE0" stop-opacity="0.24"/>
      <stop offset="1" stop-color="#59BFE0" stop-opacity="0"/>
    </radialGradient>
    <linearGradient id="panel" x1="122" y1="86" x2="1082" y2="1506" gradientUnits="userSpaceOnUse">
      <stop stop-color="#344A55" stop-opacity="0.96"/>
      <stop offset="1" stop-color="#0E1C24" stop-opacity="0.98"/>
    </linearGradient>
    <linearGradient id="glass" x1="0" y1="0" x2="1" y2="1">
      <stop stop-color="#FFFFFF" stop-opacity="0.16"/>
      <stop offset="1" stop-color="#FFFFFF" stop-opacity="0.04"/>
    </linearGradient>
    <filter id="shadow" x="70" y="42" width="1060" height="1518" filterUnits="userSpaceOnUse" color-interpolation-filters="sRGB">
      <feFlood flood-opacity="0" result="BackgroundImageFix"/>
      <feColorMatrix in="SourceAlpha" type="matrix" values="0 0 0 0 0 0 0 0 0 0 0 0 0 0 0 0 0 0 127 0" result="hardAlpha"/>
      <feOffset dy="24"/>
      <feGaussianBlur stdDeviation="26"/>
      <feColorMatrix type="matrix" values="0 0 0 0 0.01 0 0 0 0 0.02 0 0 0 0 0.04 0 0 0 0.52 0"/>
      <feBlend mode="normal" in2="BackgroundImageFix" result="effect1_dropShadow_0_1"/>
      <feBlend mode="normal" in="SourceGraphic" in2="effect1_dropShadow_0_1" result="shape"/>
    </filter>
  </defs>

  <rect width="1200" height="1600" fill="url(#bg)"/>
  <circle cx="810" cy="224" r="300" fill="url(#aura)"/>
  <circle cx="170" cy="1400" r="240" fill="url(#auraBottom)"/>

  <g filter="url(#shadow)">
    <rect x="100" y="72" width="1000" height="1456" rx="44" fill="url(#panel)" stroke="rgba(78,169,199,0.48)" stroke-width="1.5"/>
    <rect x="101" y="73" width="998" height="1454" rx="43" stroke="rgba(255,255,255,0.06)"/>
  </g>

  <rect x="140" y="108" width="920" height="2" rx="1" fill="#B2E8F7" fill-opacity="0.88"/>
  <text x="160" y="174" fill="#FFFFFF" font-size="36" font-family="SF Pro Display, PingFang SC, Helvetica Neue, Arial, sans-serif" font-weight="700">vibecoding.skill</text>

  <g>
    <rect x="487" y="260" width="226" height="54" rx="27" fill="url(#glass)" stroke="rgba(78,169,199,0.60)"/>
    <text x="600" y="296" fill="#FFFFFF" font-size="28" text-anchor="middle" font-family="SF Pro Text, PingFang SC, Helvetica Neue, Arial, sans-serif" font-weight="600">境界</text>
  </g>

  <text x="600" y="598" fill="#FFFFFF" font-size="300" text-anchor="middle" font-family="SF Pro Display, PingFang SC, Helvetica Neue, Arial, sans-serif" font-weight="700" letter-spacing="-10">金丹</text>
  <text x="600" y="704" fill="#F5F7FA" font-size="44" text-anchor="middle" font-family="SF Pro Text, PingFang SC, Helvetica Neue, Arial, sans-serif" font-weight="600"><tspan x="600" dy="0">神识强大，可同时控制多个傀儡干活（常</tspan><tspan x="600" dy="56">见任务可以推进到多步完成）</tspan></text>

  <line x1="170" y1="932" x2="1030" y2="932" stroke="rgba(78,169,199,0.42)" stroke-width="1.5"/>

  <text x="170" y="1010" fill="rgba(159,226,245,0.90)" font-size="24" font-family="SF Pro Text, PingFang SC, Helvetica Neue, Arial, sans-serif" font-weight="500">宗门和法宝</text>
  <text x="170" y="1072" fill="#FFFFFF" font-size="40" font-family="SF Pro Display, PingFang SC, Helvetica Neue, Arial, sans-serif" font-weight="650">Codex · gpt-5.4</text>

  <line x1="170" y1="1164" x2="1030" y2="1164" stroke="rgba(78,169,199,0.28)"/>

  <text x="162" y="1210" fill="rgba(159,226,245,0.92)" font-size="22" font-family="SF Pro Text, PingFang SC, Helvetica Neue, Arial, sans-serif" font-weight="600">十六曜星图 · 奎宿</text><ellipse cx="326.6" cy="1353.2" rx="172.5" ry="97.5" fill="rgba(89,191,224,0.08)"/><ellipse cx="287.4" cy="1378.6" rx="86.2" ry="38.2" fill="rgba(159,226,245,0.05)"/><polyline points="185.5,1349.0 224.7,1323.5 271.8,1298.1 318.8,1276.9 365.8,1255.7 389.4,1276.9 412.9,1302.3 436.4,1327.8 459.9,1353.2 436.4,1365.9 405.0,1374.4 365.8,1382.9 326.6,1399.8 279.6,1416.8 232.6,1429.5 201.2,1408.3" fill="none" stroke="rgba(89,191,224,0.22)" stroke-width="4.5" stroke-linecap="round" stroke-linejoin="round" stroke-dasharray="3 14"/><polyline points="185.5,1349.0 224.7,1323.5 271.8,1298.1 318.8,1276.9 365.8,1255.7 389.4,1276.9 412.9,1302.3 436.4,1327.8 459.9,1353.2 436.4,1365.9 405.0,1374.4 365.8,1382.9 326.6,1399.8 279.6,1416.8 232.6,1429.5 201.2,1408.3" fill="none" stroke="rgba(78,169,199,0.64)" stroke-width="2" stroke-linecap="round" stroke-linejoin="round" stroke-dasharray="7 9"/><circle cx="185.5" cy="1349.0" r="13.5" fill="rgba(159,226,245,0.30)"/><circle cx="185.5" cy="1349.0" r="9.7" fill="none" stroke="rgba(159,226,245,0.48)" stroke-width="0.8"/><circle cx="185.5" cy="1349.0" r="7.5" fill="rgba(255,255,255,1.00)"/><circle cx="224.7" cy="1323.5" r="13.5" fill="rgba(159,226,245,0.30)"/><circle cx="224.7" cy="1323.5" r="9.7" fill="none" stroke="rgba(159,226,245,0.48)" stroke-width="0.8"/><circle cx="224.7" cy="1323.5" r="7.5" fill="rgba(255,255,255,1.00)"/><circle cx="271.8" cy="1298.1" r="10.1" fill="rgba(159,226,245,0.08)"/><circle cx="271.8" cy="1298.1" r="4.0" fill="rgba(255,255,255,0.42)"/><circle cx="318.8" cy="1276.9" r="8.9" fill="rgba(159,226,245,0.04)"/><circle cx="318.8" cy="1276.9" r="2.9" fill="rgba(255,255,255,0.42)"/><circle cx="365.8" cy="1255.7" r="10.1" fill="rgba(159,226,245,0.08)"/><circle cx="365.8" cy="1255.7" r="4.0" fill="rgba(255,255,255,0.42)"/><circle cx="389.4" cy="1276.9" r="8.9" fill="rgba(159,226,245,0.04)"/><circle cx="389.4" cy="1276.9" r="2.9" fill="rgba(255,255,255,0.42)"/><circle cx="412.9" cy="1302.3" r="11.2" fill="rgba(159,226,245,0.14)"/><circle cx="412.9" cy="1302.3" r="5.2" fill="rgba(255,255,255,0.48)"/><circle cx="436.4" cy="1327.8" r="8.9" fill="rgba(159,226,245,0.04)"/><circle cx="436.4" cy="1327.8" r="2.9" fill="rgba(255,255,255,0.42)"/><circle cx="459.9" cy="1353.2" r="10.1" fill="rgba(159,226,245,0.08)"/><circle cx="459.9" cy="1353.2" r="4.0" fill="rgba(255,255,255,0.42)"/><circle cx="436.4" cy="1365.9" r="8.9" fill="rgba(159,226,245,0.04)"/><circle cx="436.4" cy="1365.9" r="2.9" fill="rgba(255,255,255,0.42)"/><circle cx="405.0" cy="1374.4" r="13.5" fill="rgba(159,226,245,0.30)"/><circle cx="405.0" cy="1374.4" r="9.7" fill="none" stroke="rgba(159,226,245,0.48)" stroke-width="0.8"/><circle cx="405.0" cy="1374.4" r="7.5" fill="rgba(255,255,255,1.00)"/><circle cx="365.8" cy="1382.9" r="11.2" fill="rgba(159,226,245,0.14)"/><circle cx="365.8" cy="1382.9" r="5.2" fill="rgba(255,255,255,0.48)"/><circle cx="326.6" cy="1399.8" r="8.9" fill="rgba(159,226,245,0.04)"/><circle cx="326.6" cy="1399.8" r="2.9" fill="rgba(255,255,255,0.42)"/><circle cx="279.6" cy="1416.8" r="10.1" fill="rgba(159,226,245,0.08)"/><circle cx="279.6" cy="1416.8" r="4.0" fill="rgba(255,255,255,0.42)"/><circle cx="232.6" cy="1429.5" r="8.9" fill="rgba(159,226,245,0.04)"/><circle cx="232.6" cy="1429.5" r="2.9" fill="rgba(255,255,255,0.42)"/><circle cx="201.2" cy="1408.3" r="8.9" fill="rgba(159,226,245,0.04)"/><circle cx="201.2" cy="1408.3" r="2.9" fill="rgba(255,255,255,0.42)"/><text x="162" y="1472" fill="rgba(78,169,199,0.82)" font-size="18" font-family="SF Pro Text, PingFang SC, Helvetica Neue, Arial, sans-serif" font-weight="500">亮度随 16 维得分变化</text>

  <text x="670" y="1266" fill="#FFFFFF" font-size="56" font-family="SF Pro Display, PingFang SC, Helvetica Neue, Arial, sans-serif" font-weight="650">码奸</text>
  <text x="670" y="1332" fill="rgba(159,226,245,0.90)" font-size="24" font-family="SF Pro Text, PingFang SC, Helvetica Neue, Arial, sans-serif" font-weight="500">出关时间</text>
  <text x="670" y="1390" fill="#FFFFFF" font-size="34" font-family="SF Pro Text, PingFang SC, Helvetica Neue, Arial, sans-serif" font-weight="600">2026-04-14 01:59</text>

</svg>
